<svg width="25" height="24" viewBox="0 0 25 24" fill="none" xmlns="http://www.w3.org/2000/svg">
<g id="Group 1667">
<path id="Vector" d="M6.9467 0C3.2707 0 0.280029 2.99067 0.280029 6.66667V17.3333C0.280029 21.0093 3.2707 24 6.9467 24H17.6134C21.2894 24 24.28 21.0093 24.28 17.3333V6.66667C24.28 2.99067 21.2894 0 17.6134 0H6.9467ZM6.9467 2.66667H17.6134C19.8187 2.66667 21.6134 4.46133 21.6134 6.66667V17.3333C21.6134 19.5387 19.8187 21.3333 17.6134 21.3333H6.9467C4.74136 21.3333 2.9467 19.5387 2.9467 17.3333V6.66667C2.9467 4.46133 4.74136 2.66667 6.9467 2.66667ZM18.9467 4C18.5931 4 18.2539 4.14048 18.0039 4.39052C17.7538 4.64057 17.6134 4.97971 17.6134 5.33333C17.6134 5.68696 17.7538 6.02609 18.0039 6.27614C18.2539 6.52619 18.5931 6.66667 18.9467 6.66667C19.3003 6.66667 19.6395 6.52619 19.8895 6.27614C20.1396 6.02609 20.28 5.68696 20.28 5.33333C20.28 4.97971 20.1396 4.64057 19.8895 4.39052C19.6395 4.14048 19.3003 4 18.9467 4ZM12.28 5.33333C8.60403 5.33333 5.61336 8.324 5.61336 12C5.61336 15.676 8.60403 18.6667 12.28 18.6667C15.956 18.6667 18.9467 15.676 18.9467 12C18.9467 8.324 15.956 5.33333 12.28 5.33333ZM12.28 8C14.4854 8 16.28 9.79467 16.28 12C16.28 14.2053 14.4854 16 12.28 16C10.0747 16 8.28003 14.2053 8.28003 12C8.28003 9.79467 10.0747 8 12.28 8Z" fill="#101D2B"/>
</g>
</svg>
