<svg width="27" height="24" viewBox="0 0 27 24" fill="none" xmlns="http://www.w3.org/2000/svg">
<g id="Group 1673">
<path id="Vector" d="M25.0221 0.00223555C24.6768 0.0182966 24.3516 0.118678 24.0625 0.231105H24.0584C23.7653 0.347548 22.372 0.933777 20.256 1.82115C18.1399 2.71254 15.3935 3.86894 12.6671 5.0173C7.22243 7.31002 1.87008 9.5666 1.87008 9.5666L1.93433 9.54251C1.93433 9.54251 1.56492 9.66297 1.17946 9.92797C0.982711 10.0565 0.765886 10.2331 0.577169 10.5102C0.388452 10.7872 0.235871 11.2129 0.292085 11.6505C0.384437 12.3933 0.866269 12.839 1.21158 13.084C1.56091 13.3329 1.89418 13.4494 1.89418 13.4494H1.90221L6.92129 15.1398C7.14615 15.8625 8.45111 20.1508 8.7643 21.1386C8.949 21.7288 9.12969 22.0982 9.35454 22.3793C9.46295 22.5239 9.59144 22.6443 9.74402 22.7407C9.80425 22.7768 9.86849 22.8049 9.93274 22.829C9.95282 22.8411 9.97289 22.8451 9.99698 22.8491L9.94479 22.8371C9.96085 22.8411 9.97289 22.8531 9.98494 22.8571C10.0251 22.8692 10.0532 22.8732 10.1054 22.8812C10.9004 23.1221 11.5388 22.6283 11.5388 22.6283L11.575 22.6002L14.5382 19.9019L19.5051 23.7124L19.6176 23.7606C20.6535 24.2143 21.7015 23.9613 22.2556 23.5156C22.8137 23.0659 23.0305 22.4917 23.0305 22.4917L23.0667 22.3994L26.9053 2.73663C27.0137 2.25078 27.0418 1.79706 26.9213 1.35538C26.8009 0.913701 26.4917 0.500129 26.1183 0.279289C25.7408 0.0544338 25.3674 -0.0138255 25.0221 0.00223555ZM24.9177 2.11025C24.9137 2.17449 24.9257 2.16646 24.8976 2.29094V2.30298L21.0952 21.761C21.0791 21.7891 21.051 21.8493 20.9747 21.9095C20.8944 21.9738 20.8302 22.0139 20.4969 21.8814L14.4218 17.2237L10.7519 20.5684L11.5228 15.6457C11.5228 15.6457 21.039 6.77599 21.4485 6.39454C21.8581 6.01309 21.7216 5.93278 21.7216 5.93278C21.7497 5.46701 21.1032 5.79627 21.1032 5.79627L8.58763 13.5497L8.58361 13.5297L2.5848 11.51V11.506C2.58079 11.506 2.57276 11.502 2.56874 11.502C2.57276 11.502 2.60086 11.4899 2.60086 11.4899L2.63299 11.4739L2.66511 11.4618C2.66511 11.4618 8.02147 9.20523 13.4662 6.91251C16.1925 5.76414 18.939 4.60775 21.051 3.71636C23.163 2.82898 24.725 2.17851 24.8133 2.14237C24.8976 2.11025 24.8575 2.11025 24.9177 2.11025Z" fill="#101D2B"/>
</g>
</svg>
