<svg width="29" height="24" viewBox="0 0 29 24" fill="none" xmlns="http://www.w3.org/2000/svg">
<g id="Group 1672">
<path id="Vector" d="M19.6136 0C15.9926 0 13.054 2.92582 12.9756 6.52865C9.77406 6.14467 7.6893 4.94767 6.41045 3.76823C4.99223 2.46025 4.54326 1.29818 4.54326 1.29818C4.47772 1.13303 4.36936 0.988321 4.22933 0.878945C4.0893 0.769569 3.92267 0.699474 3.74656 0.675869C3.57045 0.652264 3.39124 0.676003 3.22735 0.744643C3.06346 0.813283 2.92082 0.924346 2.8141 1.06641C2.8141 1.06641 1.61358 2.66667 1.61358 5C1.61358 6.33399 2.03477 7.32104 2.53675 8.15755C2.51826 8.14889 2.39352 8.10547 2.39352 8.10547C2.23414 8.02589 2.0564 7.99033 1.87867 8.00246C1.70095 8.01459 1.52969 8.07397 1.3826 8.17447C1.23551 8.27496 1.11793 8.41292 1.04202 8.57408C0.96611 8.73523 0.934623 8.91374 0.950816 9.09115C0.950816 9.09115 1.33571 11.9046 3.98076 13.9609L3.70472 14.0299C3.55488 14.0674 3.41574 14.139 3.2982 14.2391C3.18066 14.3393 3.08793 14.4654 3.02726 14.6074C2.96659 14.7494 2.93963 14.9036 2.94851 15.0578C2.95739 15.2119 3.00185 15.362 3.07842 15.4961C3.07842 15.4961 3.52694 16.2548 4.46644 17.0534C5.02348 17.5269 5.84176 18.0154 6.80628 18.4674C5.62176 18.9003 3.85545 19.3333 1.28024 19.3333C1.08808 19.3333 0.899975 19.3887 0.738439 19.4927C0.576903 19.5968 0.448773 19.7452 0.369379 19.9202C0.289985 20.0952 0.262688 20.2894 0.290754 20.4795C0.318821 20.6696 0.401062 20.8476 0.527639 20.9922C0.527639 20.9922 1.29179 21.834 2.80238 22.5664C4.31296 23.2988 6.63989 24 9.94691 24C15.76 24 19.9367 21.2114 22.5433 17.6771C25.1498 14.1427 26.2802 9.90741 26.2802 6.66667C26.2802 6.46103 26.2674 6.25829 26.249 6.05729C27.6565 4.70107 28.1847 3.68149 28.2099 3.63151C28.3366 3.37751 28.2894 3.07246 28.0927 2.86979C27.8967 2.66646 27.5929 2.6092 27.3349 2.72786L27.2269 2.77734C27.1342 2.82001 27.0415 2.86295 26.9482 2.90495C27.2195 2.47228 27.4337 2.00992 27.5823 1.53125C27.665 1.26725 27.5757 0.977958 27.3571 0.807292C27.1384 0.636625 26.8372 0.618354 26.6006 0.763021C25.7857 1.25824 25.0047 1.60493 24.1917 1.83724C22.9953 0.702315 21.3848 0 19.6136 0ZM19.6136 2C22.2024 2 24.2802 4.07788 24.2802 6.66667C24.2802 9.42593 23.244 13.3573 20.9339 16.4896C18.6238 19.6219 15.1338 22 9.94691 22C7.43678 22 5.76704 21.546 4.51592 21.0547C5.82647 20.8512 6.95487 20.5796 7.76592 20.2656C9.17236 19.7212 9.93129 19.0924 9.93128 19.0924C10.0705 18.973 10.1742 18.8175 10.2309 18.6431C10.2877 18.4686 10.2954 18.2819 10.2532 18.1034C10.211 17.9249 10.1205 17.7614 9.9916 17.6309C9.86271 17.5003 9.7004 17.4078 9.52243 17.3633C7.70728 16.9095 6.54313 16.1755 5.8128 15.5638L6.85576 15.3034C7.06202 15.2519 7.24651 15.136 7.38246 14.9726C7.51841 14.8092 7.59875 14.6067 7.61181 14.3945C7.62487 14.1823 7.56998 13.9715 7.4551 13.7926C7.34023 13.6137 7.17134 13.4761 6.97295 13.3997C4.80954 12.5677 3.90106 11.3909 3.43649 10.4049C4.00181 10.522 4.52817 10.6667 5.28024 10.6667C5.50545 10.6665 5.724 10.5903 5.90052 10.4504C6.07703 10.3106 6.20117 10.1152 6.25285 9.89604C6.30452 9.67684 6.2807 9.44662 6.18524 9.24265C6.08978 9.03867 5.92827 8.87289 5.72686 8.77214C5.72686 8.77214 3.61358 7.8 3.61358 5C3.61358 4.4973 3.7528 4.1789 3.85446 3.79818C4.20325 4.2669 4.4907 4.71906 5.05368 5.23828C6.77013 6.8213 9.60715 8.43544 13.8935 8.66537C14.0292 8.6726 14.1648 8.65214 14.2923 8.60522C14.4198 8.55829 14.5363 8.4859 14.6349 8.39245C14.7335 8.299 14.812 8.18646 14.8656 8.06167C14.9192 7.93689 14.9469 7.80249 14.9469 7.66667V6.66667C14.9469 4.07788 17.0248 2 19.6136 2Z" fill="#101D2B"/>
</g>
</svg>
